# xmcd CD database file
#
# Track frame offsets:
#	150
#	1659
#	29694
#	53995
#	73195
#	116547
#	142947
#	160220
#	180920
#	203871
#	212510
#	240021
#	259686
#
# Disc length: 3522 seconds
#
# Revision: 0
# Processed by: cddbd v1.5PL3 Copyright (c) Steve Scherf et al.
# Submitted via: CDex 1.50beta10
#
DISCID=a50dc00d
DTITLE=Spanova - Diary Of The Headphonist
DYEAR=2000
DGENRE=Electronic
TTITLE0=nova jaro
TTITLE1=SPEAK LOUD
TTITLE2=スペルバウンド
TTITLE3=HELLO
TTITLE4=『yes』 dedicated to Hiroyuki Uematsu
TTITLE5=二十世紀のこの僕を忘れさせてなんかやるもんか
TTITLE6=Aural Spaceship
TTITLE7=イエロー
TTITLE8=サンシャインマン
TTITLE9=Coridoras and Chipstar
TTITLE10=Happy Days 〜通りに雨のように立つ
TTITLE11=LET GO
TTITLE12=ブレイヴ
EXTD=YEAR: 2000
EXTT0=
EXTT1=
EXTT2=
EXTT3=
EXTT4=
EXTT5=
EXTT6=
EXTT7=
EXTT8=
EXTT9=
EXTT10=
EXTT11=
EXTT12=
PLAYORDER=
